<svg width="375" height="140" fill="none" xmlns="http://www.w3.org/2000/svg"><circle cx="27.6" cy="2" r="2" fill="currentColor"/><circle cx="47.6" cy="2" r="2" fill="currentColor"/><circle cx="67.6" cy="2" r="2" fill="currentColor"/><circle cx="87.6" cy="2" r="2" fill="currentColor"/><circle cx="107.6" cy="2" r="2" fill="currentColor"/><circle cx="127.6" cy="2" r="2" fill="currentColor"/><circle cx="147.6" cy="2" r="2" fill="currentColor"/><circle cx="167.6" cy="2" r="2" fill="currentColor"/><circle cx="187.6" cy="2" r="2" fill="currentColor"/><circle cx="207.6" cy="2" r="2" fill="currentColor"/><circle cx="227.6" cy="2" r="2" fill="currentColor"/><circle cx="247.6" cy="2" r="2" fill="currentColor"/><circle cx="267.6" cy="2" r="2" fill="currentColor"/><circle cx="287.6" cy="2" r="2" fill="currentColor"/><circle cx="307.6" cy="2" r="2" fill="currentColor"/><circle cx="327.6" cy="2" r="2" fill="currentColor"/><circle cx="347.6" cy="2" r="2" fill="currentColor"/><circle cx="31.6" cy="28" r="4" fill="currentColor"/><circle cx="55.6" cy="28" r="4" fill="currentColor"/><circle cx="79.6" cy="28" r="4" fill="currentColor"/><circle cx="103.6" cy="28" r="4" fill="currentColor"/><circle cx="127.6" cy="28" r="4" fill="currentColor"/><circle cx="151.6" cy="28" r="4" fill="currentColor"/><circle cx="175.6" cy="28" r="4" fill="currentColor"/><circle cx="199.6" cy="28" r="4" fill="currentColor"/><circle cx="223.6" cy="28" r="4" fill="currentColor"/><circle cx="247.6" cy="28" r="4" fill="currentColor"/><circle cx="271.6" cy="28" r="4" fill="currentColor"/><circle cx="295.6" cy="28" r="4" fill="currentColor"/><circle cx="319.6" cy="28" r="4" fill="currentColor"/><circle cx="343.6" cy="28" r="4" fill="currentColor"/><circle cx="33.6" cy="58" r="6" fill="currentColor"/><circle cx="61.6" cy="58" r="6" fill="currentColor"/><circle cx="89.6" cy="58" r="6" fill="currentColor"/><circle cx="117.6" cy="58" r="6" fill="currentColor"/><circle cx="145.6" cy="58" r="6" fill="currentColor"/><circle cx="173.6" cy="58" r="6" fill="currentColor"/><circle cx="201.6" cy="58" r="6" fill="currentColor"/><circle cx="229.6" cy="58" r="6" fill="currentColor"/><circle cx="257.6" cy="58" r="6" fill="currentColor"/><circle cx="285.6" cy="58" r="6" fill="currentColor"/><circle cx="313.6" cy="58" r="6" fill="currentColor"/><circle cx="341.6" cy="58" r="6" fill="currentColor"/><circle cx="27.6" cy="92" r="8" fill="currentColor"/><circle cx="59.6" cy="92" r="8" fill="currentColor"/><circle cx="91.6" cy="92" r="8" fill="currentColor"/><circle cx="123.6" cy="92" r="8" fill="currentColor"/><circle cx="155.6" cy="92" r="8" fill="currentColor"/><circle cx="187.6" cy="92" r="8" fill="currentColor"/><circle cx="219.6" cy="92" r="8" fill="currentColor"/><circle cx="251.6" cy="92" r="8" fill="currentColor"/><circle cx="283.6" cy="92" r="8" fill="currentColor"/><circle cx="315.6" cy="92" r="8" fill="currentColor"/><circle cx="347.6" cy="92" r="8" fill="currentColor"/><circle cx="43.6" cy="130" r="10" fill="currentColor"/><circle cx="79.6" cy="130" r="10" fill="currentColor"/><circle cx="115.6" cy="130" r="10" fill="currentColor"/><circle cx="151.6" cy="130" r="10" fill="currentColor"/><circle cx="187.6" cy="130" r="10" fill="currentColor"/><circle cx="223.6" cy="130" r="10" fill="currentColor"/><circle cx="259.6" cy="130" r="10" fill="currentColor"/><circle cx="295.6" cy="130" r="10" fill="currentColor"/><circle cx="331.6" cy="130" r="10" fill="currentColor"/></svg>