<svg width="22" height="19" fill="none" xmlns="http://www.w3.org/2000/svg"><mask id="a" maskUnits="userSpaceOnUse" x="0" y="0" width="22" height="19" fill="#000"><path fill="#fff" d="M0 0h22v19H0z"/><path d="M11 3a1 1 0 110 2 1 1 0 010-2zM3 16a1 1 0 110-2 1 1 0 010 2zM19 16a1 1 0 110-2 1 1 0 010 2z"/></mask><path d="M10 18a1 1 0 102 0h-2zM4 1a1 1 0 00-2 0h2zm16 0a1 1 0 10-2 0h2zm-8 17V6h-2v12h2zM2 1v12h2V1H2zm16 0v12h2V1h-2zm-7 4a1 1 0 01-1-1h4a3 3 0 00-3-3v4zm-1-1a1 1 0 011-1v4a3 3 0 003-3h-4zm1-1a1 1 0 011 1H8a3 3 0 003 3V3zm1 1a1 1 0 01-1 1V1a3 3 0 00-3 3h4zM3 14a1 1 0 011 1H0a3 3 0 003 3v-4zm1 1a1 1 0 01-1 1v-4a3 3 0 00-3 3h4zm-1 1a1 1 0 01-1-1h4a3 3 0 00-3-3v4zm-1-1a1 1 0 011-1v4a3 3 0 003-3H2zm17-1a1 1 0 011 1h-4a3 3 0 003 3v-4zm1 1a1 1 0 01-1 1v-4a3 3 0 00-3 3h4zm-1 1a1 1 0 01-1-1h4a3 3 0 00-3-3v4zm-1-1a1 1 0 011-1v4a3 3 0 003-3h-4z" fill="#000" mask="url(#a)"/></svg>