<svg width="21" height="20" fill="none" xmlns="http://www.w3.org/2000/svg"><path fill-rule="evenodd" clip-rule="evenodd" d="M5.5 0a5 5 0 00-5 5v10a5 5 0 005 5h10a5 5 0 005-5V5a5 5 0 00-5-5h-10zM6 2a3.5 3.5 0 00-3.5 3.5v9A3.5 3.5 0 006 18h9a3.5 3.5 0 003.5-3.5v-9A3.5 3.5 0 0015 2H6z" fill="currentColor"/><rect x="5.5" y="9" width="10" height="2" rx="1" fill="currentColor"/><rect x="5.5" y="5" width="5" height="2" rx="1" fill="currentColor"/><rect x="5.5" y="13" width="10" height="2" rx="1" fill="currentColor"/></svg>